<mxfile host="app.diagrams.net" modified="2023-10-11T06:49:24.891Z" agent="Mozilla/5.0 (X11; Linux x86_64) AppleWebKit/537.36 (KHTML, like Gecko) Chrome/114.0.0.0 Safari/537.36" etag="OCp6d9_zt10PDourmNOP" version="22.0.4" type="device">
  <diagram name="Página-1" id="KDMUr4i2PaF0-muNMiNQ">
    <mxGraphModel dx="714" dy="712" grid="1" gridSize="10" guides="1" tooltips="1" connect="1" arrows="1" fold="1" page="1" pageScale="1" pageWidth="1169" pageHeight="827" math="0" shadow="0">
      <root>
        <mxCell id="0" />
        <mxCell id="1" parent="0" />
        <mxCell id="ba29O82idYG9FmB3kM_p-15" style="edgeStyle=orthogonalEdgeStyle;rounded=0;orthogonalLoop=1;jettySize=auto;html=1;exitX=0.5;exitY=1;exitDx=0;exitDy=0;" edge="1" parent="1" source="ba29O82idYG9FmB3kM_p-1" target="ba29O82idYG9FmB3kM_p-2">
          <mxGeometry relative="1" as="geometry" />
        </mxCell>
        <mxCell id="ba29O82idYG9FmB3kM_p-1" value="INICIO" style="rounded=1;whiteSpace=wrap;html=1;" vertex="1" parent="1">
          <mxGeometry x="370" y="30" width="120" height="60" as="geometry" />
        </mxCell>
        <mxCell id="ba29O82idYG9FmB3kM_p-14" style="edgeStyle=orthogonalEdgeStyle;rounded=0;orthogonalLoop=1;jettySize=auto;html=1;exitX=0.5;exitY=1;exitDx=0;exitDy=0;" edge="1" parent="1" source="ba29O82idYG9FmB3kM_p-2" target="ba29O82idYG9FmB3kM_p-3">
          <mxGeometry relative="1" as="geometry" />
        </mxCell>
        <mxCell id="ba29O82idYG9FmB3kM_p-2" value="ESCRIBE&lt;br&gt;&quot;Cuantos años tienes?&quot;" style="shape=parallelogram;perimeter=parallelogramPerimeter;whiteSpace=wrap;html=1;fixedSize=1;" vertex="1" parent="1">
          <mxGeometry x="370" y="180" width="120" height="60" as="geometry" />
        </mxCell>
        <mxCell id="ba29O82idYG9FmB3kM_p-13" style="edgeStyle=orthogonalEdgeStyle;rounded=0;orthogonalLoop=1;jettySize=auto;html=1;exitX=0.5;exitY=1;exitDx=0;exitDy=0;entryX=0.5;entryY=0;entryDx=0;entryDy=0;" edge="1" parent="1" source="ba29O82idYG9FmB3kM_p-3" target="ba29O82idYG9FmB3kM_p-4">
          <mxGeometry relative="1" as="geometry" />
        </mxCell>
        <mxCell id="ba29O82idYG9FmB3kM_p-3" value="LEER&lt;br&gt;edad" style="shape=parallelogram;perimeter=parallelogramPerimeter;whiteSpace=wrap;html=1;fixedSize=1;" vertex="1" parent="1">
          <mxGeometry x="370" y="320" width="120" height="60" as="geometry" />
        </mxCell>
        <mxCell id="ba29O82idYG9FmB3kM_p-6" style="edgeStyle=orthogonalEdgeStyle;rounded=0;orthogonalLoop=1;jettySize=auto;html=1;exitX=0;exitY=0.5;exitDx=0;exitDy=0;" edge="1" parent="1" source="ba29O82idYG9FmB3kM_p-4" target="ba29O82idYG9FmB3kM_p-5">
          <mxGeometry relative="1" as="geometry" />
        </mxCell>
        <mxCell id="ba29O82idYG9FmB3kM_p-9" style="edgeStyle=orthogonalEdgeStyle;rounded=0;orthogonalLoop=1;jettySize=auto;html=1;exitX=1;exitY=0.5;exitDx=0;exitDy=0;" edge="1" parent="1" source="ba29O82idYG9FmB3kM_p-4">
          <mxGeometry relative="1" as="geometry">
            <mxPoint x="440" y="720" as="targetPoint" />
          </mxGeometry>
        </mxCell>
        <mxCell id="ba29O82idYG9FmB3kM_p-4" value="edad&amp;lt;5" style="rhombus;whiteSpace=wrap;html=1;" vertex="1" parent="1">
          <mxGeometry x="380" y="460" width="80" height="80" as="geometry" />
        </mxCell>
        <mxCell id="ba29O82idYG9FmB3kM_p-8" style="edgeStyle=orthogonalEdgeStyle;rounded=0;orthogonalLoop=1;jettySize=auto;html=1;exitX=0.5;exitY=1;exitDx=0;exitDy=0;" edge="1" parent="1" source="ba29O82idYG9FmB3kM_p-5" target="ba29O82idYG9FmB3kM_p-7">
          <mxGeometry relative="1" as="geometry" />
        </mxCell>
        <mxCell id="ba29O82idYG9FmB3kM_p-5" value="ESCRIBE&lt;br&gt;&quot;Pasa&quot;" style="shape=parallelogram;perimeter=parallelogramPerimeter;whiteSpace=wrap;html=1;fixedSize=1;" vertex="1" parent="1">
          <mxGeometry x="230" y="590" width="120" height="60" as="geometry" />
        </mxCell>
        <mxCell id="ba29O82idYG9FmB3kM_p-17" style="edgeStyle=orthogonalEdgeStyle;rounded=0;orthogonalLoop=1;jettySize=auto;html=1;exitX=0.5;exitY=1;exitDx=0;exitDy=0;entryX=0.5;entryY=0;entryDx=0;entryDy=0;" edge="1" parent="1" source="ba29O82idYG9FmB3kM_p-7" target="ba29O82idYG9FmB3kM_p-16">
          <mxGeometry relative="1" as="geometry" />
        </mxCell>
        <mxCell id="ba29O82idYG9FmB3kM_p-7" value="" style="ellipse;whiteSpace=wrap;html=1;aspect=fixed;" vertex="1" parent="1">
          <mxGeometry x="400" y="730" width="80" height="80" as="geometry" />
        </mxCell>
        <mxCell id="ba29O82idYG9FmB3kM_p-10" value="NO" style="text;html=1;align=center;verticalAlign=middle;resizable=0;points=[];autosize=1;strokeColor=none;fillColor=none;" vertex="1" parent="1">
          <mxGeometry x="460" y="478" width="40" height="30" as="geometry" />
        </mxCell>
        <mxCell id="ba29O82idYG9FmB3kM_p-11" value="SI" style="text;html=1;align=center;verticalAlign=middle;resizable=0;points=[];autosize=1;strokeColor=none;fillColor=none;" vertex="1" parent="1">
          <mxGeometry x="305" y="478" width="30" height="30" as="geometry" />
        </mxCell>
        <mxCell id="ba29O82idYG9FmB3kM_p-19" style="edgeStyle=orthogonalEdgeStyle;rounded=0;orthogonalLoop=1;jettySize=auto;html=1;exitX=0;exitY=0.5;exitDx=0;exitDy=0;" edge="1" parent="1" source="ba29O82idYG9FmB3kM_p-16" target="ba29O82idYG9FmB3kM_p-18">
          <mxGeometry relative="1" as="geometry" />
        </mxCell>
        <mxCell id="ba29O82idYG9FmB3kM_p-21" style="edgeStyle=orthogonalEdgeStyle;rounded=0;orthogonalLoop=1;jettySize=auto;html=1;exitX=1;exitY=0.5;exitDx=0;exitDy=0;entryX=0.5;entryY=0;entryDx=0;entryDy=0;" edge="1" parent="1" source="ba29O82idYG9FmB3kM_p-16" target="ba29O82idYG9FmB3kM_p-20">
          <mxGeometry relative="1" as="geometry" />
        </mxCell>
        <mxCell id="ba29O82idYG9FmB3kM_p-16" value="edad &amp;gt;= 5 &amp;amp;&amp;amp; edad &amp;lt;15" style="rhombus;whiteSpace=wrap;html=1;" vertex="1" parent="1">
          <mxGeometry x="400" y="880" width="80" height="80" as="geometry" />
        </mxCell>
        <mxCell id="ba29O82idYG9FmB3kM_p-22" style="edgeStyle=orthogonalEdgeStyle;rounded=0;orthogonalLoop=1;jettySize=auto;html=1;exitX=0.5;exitY=1;exitDx=0;exitDy=0;entryX=0.5;entryY=0;entryDx=0;entryDy=0;" edge="1" parent="1" source="ba29O82idYG9FmB3kM_p-18" target="ba29O82idYG9FmB3kM_p-20">
          <mxGeometry relative="1" as="geometry" />
        </mxCell>
        <mxCell id="ba29O82idYG9FmB3kM_p-18" value="ESCRIBE&lt;br&gt;&quot;Son 2 euros&quot;" style="shape=parallelogram;perimeter=parallelogramPerimeter;whiteSpace=wrap;html=1;fixedSize=1;" vertex="1" parent="1">
          <mxGeometry x="260" y="1050" width="120" height="60" as="geometry" />
        </mxCell>
        <mxCell id="ba29O82idYG9FmB3kM_p-26" style="edgeStyle=orthogonalEdgeStyle;rounded=0;orthogonalLoop=1;jettySize=auto;html=1;exitX=0.5;exitY=1;exitDx=0;exitDy=0;" edge="1" parent="1" source="ba29O82idYG9FmB3kM_p-20" target="ba29O82idYG9FmB3kM_p-25">
          <mxGeometry relative="1" as="geometry" />
        </mxCell>
        <mxCell id="ba29O82idYG9FmB3kM_p-20" value="" style="ellipse;whiteSpace=wrap;html=1;aspect=fixed;" vertex="1" parent="1">
          <mxGeometry x="440" y="1201" width="80" height="80" as="geometry" />
        </mxCell>
        <mxCell id="ba29O82idYG9FmB3kM_p-23" value="SI" style="text;html=1;align=center;verticalAlign=middle;resizable=0;points=[];autosize=1;strokeColor=none;fillColor=none;" vertex="1" parent="1">
          <mxGeometry x="315" y="888" width="30" height="30" as="geometry" />
        </mxCell>
        <mxCell id="ba29O82idYG9FmB3kM_p-24" value="NO" style="text;html=1;align=center;verticalAlign=middle;resizable=0;points=[];autosize=1;strokeColor=none;fillColor=none;" vertex="1" parent="1">
          <mxGeometry x="480" y="898" width="40" height="30" as="geometry" />
        </mxCell>
        <mxCell id="ba29O82idYG9FmB3kM_p-28" style="edgeStyle=orthogonalEdgeStyle;rounded=0;orthogonalLoop=1;jettySize=auto;html=1;exitX=0;exitY=0.5;exitDx=0;exitDy=0;entryX=0.5;entryY=0;entryDx=0;entryDy=0;" edge="1" parent="1" source="ba29O82idYG9FmB3kM_p-25" target="ba29O82idYG9FmB3kM_p-27">
          <mxGeometry relative="1" as="geometry" />
        </mxCell>
        <mxCell id="ba29O82idYG9FmB3kM_p-30" style="edgeStyle=orthogonalEdgeStyle;rounded=0;orthogonalLoop=1;jettySize=auto;html=1;exitX=1;exitY=0.5;exitDx=0;exitDy=0;entryX=0.5;entryY=0;entryDx=0;entryDy=0;" edge="1" parent="1" source="ba29O82idYG9FmB3kM_p-25" target="ba29O82idYG9FmB3kM_p-29">
          <mxGeometry relative="1" as="geometry" />
        </mxCell>
        <mxCell id="ba29O82idYG9FmB3kM_p-25" value="edad&amp;gt;=15" style="rhombus;whiteSpace=wrap;html=1;" vertex="1" parent="1">
          <mxGeometry x="440" y="1400" width="80" height="80" as="geometry" />
        </mxCell>
        <mxCell id="ba29O82idYG9FmB3kM_p-31" style="edgeStyle=orthogonalEdgeStyle;rounded=0;orthogonalLoop=1;jettySize=auto;html=1;exitX=0.5;exitY=1;exitDx=0;exitDy=0;" edge="1" parent="1" source="ba29O82idYG9FmB3kM_p-27">
          <mxGeometry relative="1" as="geometry">
            <mxPoint x="530" y="1700" as="targetPoint" />
          </mxGeometry>
        </mxCell>
        <mxCell id="ba29O82idYG9FmB3kM_p-27" value="ESCRIBE&lt;br&gt;&quot;Son 3 euros&quot;" style="shape=parallelogram;perimeter=parallelogramPerimeter;whiteSpace=wrap;html=1;fixedSize=1;" vertex="1" parent="1">
          <mxGeometry x="310" y="1540" width="120" height="60" as="geometry" />
        </mxCell>
        <mxCell id="ba29O82idYG9FmB3kM_p-35" style="edgeStyle=orthogonalEdgeStyle;rounded=0;orthogonalLoop=1;jettySize=auto;html=1;exitX=0.5;exitY=1;exitDx=0;exitDy=0;entryX=0.5;entryY=0;entryDx=0;entryDy=0;" edge="1" parent="1" source="ba29O82idYG9FmB3kM_p-29" target="ba29O82idYG9FmB3kM_p-34">
          <mxGeometry relative="1" as="geometry" />
        </mxCell>
        <mxCell id="ba29O82idYG9FmB3kM_p-29" value="" style="ellipse;whiteSpace=wrap;html=1;aspect=fixed;" vertex="1" parent="1">
          <mxGeometry x="490" y="1700" width="80" height="80" as="geometry" />
        </mxCell>
        <mxCell id="ba29O82idYG9FmB3kM_p-32" value="NO" style="text;html=1;align=center;verticalAlign=middle;resizable=0;points=[];autosize=1;strokeColor=none;fillColor=none;" vertex="1" parent="1">
          <mxGeometry x="510" y="1418" width="40" height="30" as="geometry" />
        </mxCell>
        <mxCell id="ba29O82idYG9FmB3kM_p-33" value="SI" style="text;html=1;align=center;verticalAlign=middle;resizable=0;points=[];autosize=1;strokeColor=none;fillColor=none;" vertex="1" parent="1">
          <mxGeometry x="375" y="1408" width="30" height="30" as="geometry" />
        </mxCell>
        <mxCell id="ba29O82idYG9FmB3kM_p-34" value="FIN" style="rounded=1;whiteSpace=wrap;html=1;" vertex="1" parent="1">
          <mxGeometry x="470" y="1880" width="120" height="60" as="geometry" />
        </mxCell>
      </root>
    </mxGraphModel>
  </diagram>
</mxfile>
